<svg width="41" height="40" viewBox="0 0 41 40" fill="none" xmlns="http://www.w3.org/2000/svg">
<g clip-path="url(#clip0_4126_319)">
<path d="M18.1463 2.22637C17.3338 2.52325 17.201 2.64825 8.88848 10.9607C-0.572456 20.4373 0.146294 19.6092 0.146294 21.0154C0.146294 22.4217 -0.392769 21.7732 7.01348 29.1951C12.1775 34.3748 13.5838 35.742 13.9354 35.9295C14.7557 36.367 15.7557 36.3826 16.6463 35.9764C17.0525 35.7967 17.9744 34.8982 25.4275 27.4373C32.826 20.0311 33.7869 19.0467 33.9822 18.6326L34.2088 18.1639L34.2322 11.3123C34.2479 4.53106 34.2479 4.46075 34.0838 4.03106C33.7713 3.18731 33.0994 2.53887 32.24 2.25762C31.826 2.117 31.4432 2.10918 25.115 2.117C19.8104 2.117 18.3729 2.14043 18.1463 2.22637ZM26.9197 8.20293C27.7322 8.50762 28.3104 9.32793 28.3104 10.1951C28.3104 11.6404 26.8494 12.6873 25.4744 12.2186C25.0057 12.0623 24.49 11.6014 24.2479 11.1248C23.9744 10.5857 23.9744 9.8045 24.2479 9.26543C24.7635 8.25762 25.8807 7.81231 26.9197 8.20293Z" fill="#CC071E"/>
<path d="M37.123 12.1249L37.0996 19.2577L36.9121 19.6874C36.748 20.0702 35.7793 21.0624 28.4121 28.4452L20.0918 36.7734L20.4746 37.1015C21.1543 37.703 21.8184 37.9296 22.709 37.8749C23.8809 37.7968 23.2715 38.3359 31.8809 29.7421C38.9121 22.7187 39.6543 21.9609 39.8496 21.5312L40.0684 21.0546V14.1015V7.14836L39.8496 6.71867C39.3574 5.74992 38.5762 5.20304 37.4746 5.04679L37.1387 4.99992L37.123 12.1249Z" fill="#CC071E"/>
</g>
<defs>
<clipPath id="clip0_4126_319">
<rect width="40" height="40" fill="white" transform="translate(0.107422)"/>
</clipPath>
</defs>
</svg>
