<svg width="41" height="40" viewBox="0 0 41 40" fill="none" xmlns="http://www.w3.org/2000/svg">
<path d="M17.5917 0.191345C17.3042 0.339138 17.1474 0.495625 17.0079 0.78252C16.825 1.13027 16.8075 1.28676 16.8075 2.49519V3.82534H16.581C16.459 3.82534 15.9536 3.90358 15.4744 4.0079C9.66246 5.17287 5.34928 9.48497 4.06839 15.388C3.89412 16.1531 3.88541 16.5704 3.85055 21.0998L3.8157 25.977L3.3626 26.0901C0.495856 26.7595 -0.811168 30.0979 0.818256 32.5582C1.32364 33.3059 2.01201 33.8449 2.94435 34.2013L3.43231 34.3839L17.8967 34.41C28.1961 34.4274 32.5267 34.41 32.9275 34.3404C34.1822 34.1231 35.376 33.2624 35.9249 32.1583C36.3171 31.3846 36.4478 30.7325 36.3868 29.8632C36.3432 29.1416 36.0469 28.1853 35.8465 28.1157C35.7855 28.0896 35.4544 28.2113 35.1059 28.3852C32.1694 29.8632 28.2571 30.0718 25.0069 28.9329C23.9874 28.5765 22.541 27.8288 21.6261 27.1855C21.1991 26.8899 20.4498 26.2379 19.9444 25.7336C17.1648 22.9603 15.7706 19.2741 16.032 15.3446C16.2324 12.3191 17.5482 9.33718 19.6656 7.11158C20.4759 6.26828 21.6435 5.31197 22.4277 4.86859C22.6891 4.72079 22.907 4.56431 22.907 4.52953C22.907 4.45129 21.2253 4.03399 20.5979 3.95574C20.3626 3.92097 20.0577 3.8775 19.927 3.86011L19.6917 3.81664L19.6656 2.3474C19.6394 1.02594 19.622 0.860764 19.4564 0.634724C19.2386 0.330444 18.6025 8.01086e-05 18.2453 8.01086e-05C18.0971 8.01086e-05 17.8009 0.0870171 17.5917 0.191345Z" fill="white"/>
<path d="M28.3532 5.61626C24.2143 6.06833 20.6941 8.81556 19.2999 12.6756C18.5593 14.7447 18.5157 17.5006 19.2041 19.5871C20.424 23.3341 23.6654 26.1509 27.5168 26.8203C28.4752 26.9942 30.3486 26.9855 31.3246 26.8203C35.6464 26.064 39.0011 22.769 39.9509 18.3439C40.16 17.3528 40.16 15.1968 39.9509 14.2144C39.0099 9.86751 35.8033 6.65951 31.5075 5.79013C30.8192 5.64234 28.998 5.54671 28.3532 5.61626ZM30.1308 11.4498C30.671 11.8584 30.7059 11.9801 30.732 13.5276L30.7582 14.9534H32.1088C33.6162 14.9534 33.8079 15.0055 34.1913 15.5185C34.6967 16.1705 34.4701 17.0746 33.712 17.4485C33.3461 17.6397 33.2328 17.6484 31.2723 17.6484C29.3117 17.6484 29.1985 17.6397 28.8325 17.4485C28.5449 17.3094 28.3881 17.1529 28.2487 16.866C28.057 16.5008 28.0483 16.3878 28.0483 14.4317C28.0483 12.4756 28.057 12.3626 28.2487 11.9975C28.6059 11.2846 29.5383 11.0151 30.1308 11.4498Z" fill="white"/>
<path d="M13.862 37.2702C13.4002 37.4962 13.1475 37.9396 13.1475 38.5221C13.1475 39.0611 13.3392 39.4349 13.7835 39.7653C14.0275 39.9478 14.1234 39.9478 18.149 39.9739L22.2618 40L22.6452 39.7913C23.0808 39.5653 23.4294 39.0089 23.4294 38.5655C23.4294 38.2004 23.0983 37.5657 22.7933 37.3484C22.5493 37.1745 22.4273 37.1658 18.3494 37.1484C14.5939 37.1224 14.1234 37.1398 13.862 37.2702Z" fill="white"/>
</svg>
