<svg width="41" height="40" viewBox="0 0 41 40" fill="none" xmlns="http://www.w3.org/2000/svg">
<path d="M18.4277 0.148438C17.748 0.460938 17.3496 1.07812 17.3418 1.83594C17.3418 2.23438 17.5215 2.88281 18.5371 6.01562C19.3027 8.40625 19.8027 9.83594 19.9355 10.0312C20.3887 10.6953 21.2168 10.9766 22.0293 10.75C22.4434 10.6328 22.5605 10.5469 23.1543 9.92188L23.8184 9.23438L27.0996 12.1562C28.9043 13.7656 30.5605 15.2734 30.7871 15.5078C31.2793 16.0234 31.6309 16.7266 31.7949 17.5C31.9902 18.4531 31.7559 19.6172 31.2012 20.4297C30.0293 22.1406 27.7949 22.6875 25.9668 21.7109C25.6934 21.5625 24.209 20.2969 21.9434 18.2734C19.9668 16.5078 18.123 14.8906 17.8418 14.6875C16.7871 13.8906 15.5059 13.3281 14.1934 13.0781C13.1621 12.8828 11.3418 12.9609 10.3262 13.2344C8.81836 13.6328 7.48242 14.4062 6.39648 15.5C4.49023 17.4219 3.62305 19.4453 3.62305 21.9844C3.62305 24.0703 4.25586 25.8828 5.55273 27.5078C5.75586 27.7656 7.52148 29.4062 9.4668 31.1484L12.998 34.3047L12.4902 34.8672C12.209 35.1797 11.9121 35.5703 11.8262 35.75C11.623 36.1641 11.6152 36.9531 11.8184 37.3906C11.9824 37.75 12.4746 38.2031 12.8574 38.3359C13.4746 38.5547 20.4043 40 20.834 40C21.6074 40 22.1777 39.6406 22.498 38.9453C22.8262 38.2578 22.7949 38.1328 21.5059 34.1016C20.8574 32.0859 20.2559 30.2891 20.1621 30.1172C19.8184 29.4922 18.9355 29.0625 18.2402 29.1875C17.7559 29.2734 17.2324 29.6172 16.7402 30.1719C16.4824 30.4609 16.2324 30.7031 16.1934 30.7031C16.1152 30.7031 10.6699 25.875 9.76367 25.0078C8.80273 24.0781 8.37305 23.1875 8.36523 22.0703C8.34961 20.9609 8.66211 20.125 9.41992 19.2344C10.7246 17.7109 12.6934 17.2656 14.3809 18.1172C14.8887 18.3672 14.959 18.4297 19.209 22.2266C20.8027 23.6406 22.3496 24.9922 22.6465 25.2188C23.4043 25.7969 24.748 26.4375 25.6934 26.6797C26.6621 26.9297 28.0527 27.0156 29.0371 26.8828C32.5918 26.4062 35.4199 23.8984 36.3574 20.3828C36.5762 19.5703 36.6543 17.8125 36.5137 16.8516C36.3496 15.6875 35.8027 14.3047 35.0918 13.2578C34.5762 12.4922 33.8965 11.8438 30.4121 8.73438C28.5684 7.09375 27.0605 5.72656 27.0605 5.69531C27.0605 5.66406 27.2871 5.39062 27.5605 5.08594C28.2012 4.36719 28.3418 4.07812 28.3418 3.4375C28.3418 2.63281 27.8809 1.9375 27.1855 1.67969C26.5762 1.45312 19.6387 0 19.1855 0C18.9199 0 18.6152 0.0625 18.4277 0.148438Z" fill="#CC071E"/>
</svg>
