<svg width="41" height="40" viewBox="0 0 41 40" fill="none" xmlns="http://www.w3.org/2000/svg">
<g clip-path="url(#clip0_4126_326)">
<path d="M24.123 0.187432C23.1934 0.531182 22.5762 1.11712 22.1152 2.08587L21.8652 2.61712L21.8418 4.11712L21.8105 5.61712L20.6543 5.64056C19.5449 5.664 19.4824 5.67181 19.2871 5.85931C18.9902 6.13275 18.8574 6.42962 18.8574 6.79681C18.8574 7.164 18.9902 7.46087 19.2871 7.73431C19.4824 7.92181 19.5449 7.92962 20.6465 7.95306L21.8027 7.9765L21.9355 8.64056C22.4199 11.1171 24.1152 13.0234 26.5137 13.789C27.4824 14.1015 29.0137 14.1562 30.0527 13.914C32.7793 13.2812 34.7949 11.0546 35.1777 8.25775C35.2871 7.48431 35.2871 3.44525 35.1855 2.88275C34.9824 1.78899 34.1934 0.77337 33.1777 0.288995L32.6465 0.0389948L28.623 0.0233698L24.5996 0.00774479L24.123 0.187432Z" fill="#CC071E"/>
<path d="M7.68561 12.0859C7.62311 12.1094 7.48249 12.2031 7.38874 12.2969C6.97468 12.6719 6.98249 12.5469 6.98249 17.3828C6.98249 22.25 6.96686 22.0859 7.41218 22.5L7.62311 22.6953L12.3184 22.7187C16.9278 22.7344 17.0294 22.7344 17.2794 22.5781C17.4278 22.4844 17.5997 22.2812 17.6856 22.0859C17.8341 21.7734 17.8419 21.5312 17.8419 17.3828C17.8419 13.2344 17.8341 12.9922 17.6856 12.6797C17.4122 12.0703 17.2794 12.0312 15.2872 12.0312H13.545V13.1094C13.545 14.0703 13.5294 14.2187 13.3731 14.5312C12.9591 15.3281 11.9044 15.3594 11.4356 14.5937C11.295 14.3672 11.2794 14.1953 11.2794 13.1797V12.0312L9.54499 12.039C8.58405 12.039 7.74811 12.0625 7.68561 12.0859Z" fill="#CC071E"/>
<path d="M27.8809 16.414C27.084 16.4765 25.9512 16.8203 25.2871 17.1953C24.4512 17.6718 23.9043 18.1874 20.584 21.5937L17.2012 25.0703L12.3418 25.0937L7.49023 25.1171L6.94336 25.3828C6.22461 25.7343 5.60742 26.3515 5.25586 27.0703C4.99805 27.6015 4.99023 27.6406 4.99023 28.5937C4.99023 29.5468 4.99805 29.5859 5.25586 30.1171C5.60742 30.8359 6.22461 31.4531 6.94336 31.8046L7.49023 32.0703L13.3027 32.0937C19.5762 32.1171 19.5605 32.1171 20.4199 31.6953C20.6152 31.6015 21.1152 31.1953 21.5371 30.789L22.2949 30.0546V34.6093C22.2949 39.0781 22.2949 39.164 22.459 39.4531C22.7871 40.0312 22.3965 39.9999 28.7559 39.9999C34.3262 39.9999 34.4512 39.9999 34.7012 39.8437C34.8574 39.7421 35.0215 39.5468 35.1152 39.3359C35.2637 38.9999 35.2715 38.7968 35.2402 30.5312C35.2168 21.3281 35.2402 21.7968 34.7793 20.6249C34.1777 19.0859 32.8652 17.6953 31.3262 16.9921C30.2793 16.5078 29.1465 16.3124 27.8809 16.414Z" fill="#CC071E"/>
</g>
<defs>
<clipPath id="clip0_4126_326">
<rect width="40" height="40" fill="white" transform="translate(0.107422)"/>
</clipPath>
</defs>
</svg>
