<svg width="64" height="72" viewBox="0 0 64 72" fill="none" xmlns="http://www.w3.org/2000/svg">
<path d="M47.0777 44.9764C49.003 44.9826 50.8924 44.4566 52.5376 43.4566C57.5943 40.3931 60.3011 33.2642 59.7865 24.3841C59.7669 24.0484 59.6247 23.7315 59.3869 23.4937C59.1491 23.256 58.8323 23.1138 58.4966 23.0942C49.6181 22.5727 42.4893 25.2795 39.4257 30.3362C37.8734 32.8989 37.1248 35.7019 38.3279 38.8819C38.874 40.029 40.2669 41.0844 41.1582 41.4034L43.5892 43.2915C44.1034 44.6677 45.4648 44.9636 47.0777 44.9764Z" fill="url(#paint0_linear_1_256)"/>
<g filter="url(#filter0_b_1_256)">
<path d="M41.2577 45.986C43.5378 45.9933 45.7757 45.3704 47.7241 44.1861C53.713 40.5578 56.9187 32.1148 56.3092 21.5976C56.286 21.2 56.1176 20.8248 55.836 20.5431C55.5544 20.2615 55.1791 20.0931 54.7815 20.0699C44.2664 19.4523 35.8234 22.658 32.1951 28.647C30.3566 31.682 29.47 35.0018 30.8949 38.768C31.5416 40.1265 33.1913 41.3766 34.247 41.7543C32.1452 43.9427 30.8156 46.7574 30.4602 49.7707C30.4439 49.9271 30.4297 50.0856 30.4175 50.244L24.6738 44.5754C25.387 44.0282 26.8646 42.4093 27.0696 40.3119C27.2728 38.2922 26.8128 36.2613 25.7593 34.5262C23.0777 30.0995 16.8876 27.7246 9.20238 28.1777C8.80478 28.2009 8.42955 28.3693 8.14793 28.6509C7.8663 28.9326 7.6979 29.3078 7.67468 29.7054C7.21352 37.3906 9.5965 43.5807 14.0232 46.2704C15.4873 47.1609 17.1689 47.6299 18.8826 47.6254C20.1274 47.6157 20.784 47.0606 21.9503 46.6255L30.3728 54.7987V57.3259C30.3677 57.7452 30.5212 58.1509 30.8027 58.4618C31.0841 58.7726 31.4727 58.9656 31.8904 59.0019C32.1127 59.0167 32.3357 58.9856 32.5454 58.9105C32.7552 58.8355 32.9473 58.7181 33.1098 58.5657C33.2724 58.4133 33.4018 58.2291 33.4901 58.0246C33.5784 57.82 33.6238 57.5995 33.6233 57.3767V51.3858C33.6178 49.0398 34.5002 46.7776 37.126 43.9905C37.735 45.6204 39.3475 45.9709 41.2577 45.986Z" fill="url(#paint1_linear_1_256)"/>
<path d="M47.465 43.7584L47.4643 43.7588C45.595 44.8951 43.448 45.4928 41.2604 45.486C40.3241 45.4785 39.521 45.3874 38.893 45.1309C38.288 44.8838 37.8443 44.4842 37.5944 43.8155L37.3132 43.0627L36.7621 43.6476C34.0748 46.5 33.1176 48.8792 33.1233 51.3861C33.1233 51.3864 33.1233 51.3867 33.1233 51.3869L33.1233 57.3767L33.1233 57.3778C33.1236 57.5321 33.0922 57.6847 33.0311 57.8263C32.9699 57.968 32.8803 58.0955 32.7678 58.201C32.6553 58.3065 32.5223 58.3878 32.377 58.4398C32.2334 58.4911 32.0808 58.5128 31.9286 58.5033C31.6385 58.4768 31.3689 58.3422 31.1733 58.1262C30.9765 57.9089 30.8692 57.6252 30.8728 57.3321H30.8728V57.3259V54.7987V54.5872L30.721 54.4399L22.2985 46.2667L22.0717 46.0466L21.7756 46.157C21.466 46.2725 21.1927 46.3951 20.944 46.5102C20.8881 46.536 20.8339 46.5613 20.7812 46.5859C20.5948 46.6727 20.4257 46.7516 20.2532 46.8236C19.8273 47.0014 19.4178 47.121 18.8799 47.1254C17.2588 47.1294 15.668 46.6857 14.283 45.8432L14.2828 45.8431C10.0841 43.2919 7.71781 37.3342 8.17378 29.7353L8.17383 29.7345C8.1899 29.4593 8.3065 29.1995 8.50148 29.0045C8.69646 28.8095 8.95625 28.6929 9.23153 28.6768L9.2318 28.6768C16.8319 28.2288 22.7887 30.5875 25.3316 34.7852L25.3319 34.7857C26.3291 36.4279 26.7644 38.3502 26.5721 40.2619L26.572 40.2633C26.3853 42.1731 25.02 43.6795 24.3694 44.1787L23.9141 44.5281L24.3226 44.9313L30.0663 50.5999L30.8334 51.357L30.9161 50.2824C30.9278 50.1293 30.9415 49.9765 30.9572 49.8258C31.3004 46.922 32.5821 44.2096 34.6076 42.1007L35.1425 41.5437L34.4154 41.2836C33.9593 41.1203 33.3344 40.7502 32.7407 40.2474C32.1535 39.75 31.6394 39.1586 31.3551 38.5712C30.0121 35.0018 30.8385 31.8516 32.6228 28.906C36.1113 23.1478 44.3191 19.9563 54.7522 20.569L54.7524 20.569C55.0277 20.5851 55.2875 20.7017 55.4824 20.8967C55.6774 21.0917 55.794 21.3515 55.8101 21.6267C56.4148 32.0621 53.2232 40.2699 47.465 43.7584Z" stroke="url(#paint2_linear_1_256)"/>
</g>
<path fill-rule="evenodd" clip-rule="evenodd" d="M48.1534 28.756C48.451 29.5292 48.0656 30.3972 47.2925 30.6948C46.1521 31.1338 44.7867 32.2992 43.4923 33.8687C42.2251 35.4054 41.1783 37.1432 40.6154 38.4807C40.294 39.2443 39.4145 39.6028 38.651 39.2814C37.8874 38.9601 37.5289 38.0806 37.8503 37.317C38.5408 35.6762 39.7502 33.6911 41.1779 31.96C42.5784 30.2617 44.3467 28.6142 46.2146 27.8951C46.9877 27.5975 47.8557 27.9829 48.1534 28.756Z" fill="url(#paint3_linear_1_256)"/>
<path fill-rule="evenodd" clip-rule="evenodd" d="M14.6266 34.7776C15.0519 34.4252 15.6823 34.4843 16.0347 34.9096L21.1027 41.0261C21.4551 41.4513 21.396 42.0817 20.9708 42.4341C20.5455 42.7865 19.9151 42.7274 19.5627 42.3021L14.4947 36.1857C14.1423 35.7604 14.2014 35.13 14.6266 34.7776Z" fill="#333333"/>
<path fill-rule="evenodd" clip-rule="evenodd" d="M14.6266 34.7776C15.0519 34.4252 15.6823 34.4843 16.0347 34.9096L21.1027 41.0261C21.4551 41.4513 21.396 42.0817 20.9708 42.4341C20.5455 42.7865 19.9151 42.7274 19.5627 42.3021L14.4947 36.1857C14.1423 35.7604 14.2014 35.13 14.6266 34.7776Z" fill="url(#paint4_linear_1_256)"/>
<defs>
<filter id="filter0_b_1_256" x="3.61816" y="15.9945" width="56.7646" height="47.011" filterUnits="userSpaceOnUse" color-interpolation-filters="sRGB">
<feFlood flood-opacity="0" result="BackgroundImageFix"/>
<feGaussianBlur in="BackgroundImageFix" stdDeviation="2"/>
<feComposite in2="SourceAlpha" operator="in" result="effect1_backgroundBlur_1_256"/>
<feBlend mode="normal" in="SourceGraphic" in2="effect1_backgroundBlur_1_256" result="shape"/>
</filter>
<linearGradient id="paint0_linear_1_256" x1="58.0033" y1="23.0305" x2="30.7396" y2="45.0028" gradientUnits="userSpaceOnUse">
<stop stop-color="#CC071E"/>
<stop offset="1" stop-color="#F27474"/>
</linearGradient>
<linearGradient id="paint1_linear_1_256" x1="32.0005" y1="19.9945" x2="32.0005" y2="59.9059" gradientUnits="userSpaceOnUse">
<stop stop-color="#CC071E" stop-opacity="0.42"/>
<stop offset="1" stop-color="#E44B4B" stop-opacity="0.49"/>
</linearGradient>
<linearGradient id="paint2_linear_1_256" x1="17.6482" y1="27.1241" x2="35.8672" y2="66.4498" gradientUnits="userSpaceOnUse">
<stop offset="0.331091" stop-color="white" stop-opacity="0.26"/>
<stop offset="1" stop-color="#E44B4B" stop-opacity="0.16"/>
</linearGradient>
<linearGradient id="paint3_linear_1_256" x1="37.4612" y1="36.192" x2="48.6534" y2="36.1405" gradientUnits="userSpaceOnUse">
<stop stop-color="#FCC7C7"/>
<stop offset="1" stop-color="#FEFCFF"/>
</linearGradient>
<linearGradient id="paint4_linear_1_256" x1="14.0824" y1="40.4209" x2="21.6011" y2="40.3877" gradientUnits="userSpaceOnUse">
<stop stop-color="#FCC7C7"/>
<stop offset="1" stop-color="#FEFCFF"/>
</linearGradient>
</defs>
</svg>
