<svg width="64" height="72" viewBox="0 0 64 72" fill="none" xmlns="http://www.w3.org/2000/svg">
<path d="M34.981 37.4831C36.1816 37.5285 37.3706 37.7363 38.5154 38.1009C39.2074 38.3038 39.9114 38.4634 40.6233 38.5787C40.9102 36.9758 41.7511 35.5245 42.9991 34.4784C44.2471 33.4324 45.823 32.8579 47.4514 32.8555V35.1693C46.4492 35.1721 45.4752 35.501 44.6765 36.1063C43.8777 36.7115 43.2977 37.5603 43.0239 38.5243C43.653 38.4095 44.2772 38.2686 44.8946 38.1021C46.0898 37.7441 47.3248 37.5361 48.5713 37.4831C52.8773 37.4831 55.5498 41.0291 55.5498 46.7384C55.5498 55.4269 50.8435 60.6202 46.2945 60.6214H46.2922C45.2989 60.5677 44.3232 60.3365 43.4115 59.9388C42.8584 59.6902 42.2696 59.5302 41.6668 59.4645C41.0628 59.5298 40.4729 59.6899 39.9187 59.9388C39.0073 60.3364 38.0321 60.5676 37.0392 60.6214C32.4925 60.6202 27.7839 55.4269 27.7839 46.7384C27.7839 42.4694 29.6696 37.4831 34.981 37.4831Z" fill="url(#paint0_linear_1_247)"/>
<g filter="url(#filter0_b_1_247)">
<path d="M29.3948 8.39977C28.4998 7.56976 27.3241 7.10874 26.1034 7.10913H21.265L20.9021 7.12123C19.6849 7.21278 18.5472 7.76104 17.7172 8.6561C16.8872 9.55116 16.4262 10.7269 16.4266 11.9475V13.1571C16.4275 16.5884 15.3586 19.9346 13.3687 22.7299L13.2477 22.8969L12.7639 23.6033C10.419 27.1857 9.16973 31.3742 9.16895 35.6558V57.6334L9.18104 58.0592C9.28965 59.9072 10.1003 61.6438 11.4472 62.9138C12.7941 64.1838 14.5754 64.8911 16.4266 64.891H30.9418L31.3676 64.8789C33.2156 64.7703 34.9523 63.9596 36.2222 62.6127C37.4922 61.2658 38.1995 59.4846 38.1994 57.6334V35.6582L38.1849 34.8018C38.0164 30.5235 36.604 26.3871 34.1206 22.8993L33.9997 22.7251L33.5884 22.1203C31.8635 19.4568 30.9418 16.3432 30.9418 13.1571V11.9475L30.9297 11.5847C30.8382 10.3674 30.2899 9.22978 29.3948 8.39977Z" fill="url(#paint1_linear_1_247)"/>
<path d="M26.1034 7.60913L26.1035 7.60913C27.1981 7.60878 28.2523 8.02216 29.0549 8.7664C29.8549 9.50834 30.346 10.5244 30.4303 11.6121L30.4418 11.9558V13.1571C30.4418 16.4397 31.3914 19.6476 33.1687 22.3921L33.1686 22.3922L33.1749 22.4015L33.5862 23.0063L33.5862 23.0063L33.589 23.0103L33.7099 23.1845L33.7099 23.1845L33.7133 23.1893C36.1392 26.5964 37.5194 30.6367 37.6851 34.8159L37.6994 35.6624V57.6334C37.6995 59.3571 37.0409 61.0156 35.8585 62.2697C34.6777 63.522 33.0636 64.2765 31.3457 64.3793L30.9347 64.391H16.4266C14.7029 64.3911 13.0443 63.7325 11.7902 62.55C10.5379 61.3692 9.78347 59.7552 9.68062 58.0372L9.66895 57.6263V35.6559C9.66895 35.6558 9.66895 35.6558 9.66895 35.6558C9.66973 31.4732 10.8896 27.3816 13.1794 23.8815L13.6565 23.1849L13.7736 23.0233L13.7736 23.0233L13.776 23.0199C15.8262 20.1399 16.9275 16.6924 16.9266 13.1571C16.9266 13.1571 16.9266 13.1571 16.9266 13.157V11.9475V11.9474C16.9262 10.8529 17.3396 9.79864 18.0838 8.99608C18.8258 8.19599 19.8418 7.70495 20.9295 7.62059L21.2733 7.60913H26.1034Z" stroke="url(#paint2_linear_1_247)"/>
</g>
<path d="M27.4276 17.1711H19.9298C19.2588 19.4135 18.2572 21.5465 16.9571 23.5019L16.4231 24.2722L16.2855 24.4594C14.1051 27.4805 12.8559 31.0576 12.6879 34.7611L12.6797 35.1002C14.2678 33.9944 16.1716 33.4149 18.1159 33.4456C19.6346 33.4145 21.1382 33.7482 22.4967 34.4178C23.8553 35.0875 25.0281 36.0729 25.9137 37.2891C26.6569 38.3063 27.857 38.8976 29.2415 38.8704C29.8665 38.8832 30.4852 38.7458 31.0443 38.4704C31.6035 38.1949 32.0862 37.7895 32.4509 37.2891C33.065 36.4475 33.8188 35.7139 34.6804 35.1192L34.6887 35.6155C34.6887 31.8995 33.5987 28.273 31.5591 25.1673L30.9315 24.2668C29.3721 22.1095 28.188 19.7116 27.4276 17.1711Z" fill="url(#paint3_linear_1_247)"/>
<defs>
<filter id="filter0_b_1_247" x="5.16895" y="3.10913" width="37.0303" height="65.7819" filterUnits="userSpaceOnUse" color-interpolation-filters="sRGB">
<feFlood flood-opacity="0" result="BackgroundImageFix"/>
<feGaussianBlur in="BackgroundImageFix" stdDeviation="2"/>
<feComposite in2="SourceAlpha" operator="in" result="effect1_backgroundBlur_1_247"/>
<feBlend mode="normal" in="SourceGraphic" in2="effect1_backgroundBlur_1_247" result="shape"/>
</filter>
<linearGradient id="paint0_linear_1_247" x1="30.1006" y1="32.8555" x2="53.2331" y2="60.6214" gradientUnits="userSpaceOnUse">
<stop stop-color="#CC071E"/>
<stop offset="1" stop-color="#F27474"/>
</linearGradient>
<linearGradient id="paint1_linear_1_247" x1="23.6842" y1="7.10913" x2="23.6842" y2="66.2247" gradientUnits="userSpaceOnUse">
<stop stop-color="#CC071E" stop-opacity="0.42"/>
<stop offset="1" stop-color="#E44B4B" stop-opacity="0.49"/>
</linearGradient>
<linearGradient id="paint2_linear_1_247" x1="15.14" y1="17.6693" x2="50.1609" y2="48.0519" gradientUnits="userSpaceOnUse">
<stop offset="0.331091" stop-color="white" stop-opacity="0.26"/>
<stop offset="1" stop-color="#E44B4B" stop-opacity="0.16"/>
</linearGradient>
<linearGradient id="paint3_linear_1_247" x1="12.1123" y1="32.8739" x2="35.5242" y2="32.7534" gradientUnits="userSpaceOnUse">
<stop stop-color="#FCC7C7"/>
<stop offset="1" stop-color="#FEFCFF"/>
</linearGradient>
</defs>
</svg>
