<svg width="1440" height="1206" viewBox="0 0 1440 1206" fill="none" xmlns="http://www.w3.org/2000/svg">
<g filter="url(#filter0_f_4126_227)">
<path d="M774.439 1489.2L744.423 1207.94C1356.6 1142.61 1824.05 803.659 1786.56 452.297L2276.6 400C2330.64 906.418 1656.76 1395.04 774.439 1489.2Z" fill="url(#paint0_linear_4126_227)"/>
</g>
<g filter="url(#filter1_f_4126_227)">
<path d="M758.794 1342.58L733.565 1106.18C1247.98 1051.28 1640.89 766.385 1609.38 471.131L2021.27 427.175C2066.69 852.819 1500.26 1263.45 758.794 1342.58Z" fill="url(#paint1_linear_4126_227)"/>
</g>
<g filter="url(#filter2_f_4126_227)">
<path d="M1068.76 1457.72L1038.74 1176.45C426.566 1241.79 -101.892 1009.12 -139.389 657.758L-629.43 710.055C-575.385 1216.47 186.431 1551.88 1068.76 1457.72Z" fill="url(#paint2_linear_4126_227)"/>
</g>
<g filter="url(#filter3_f_4126_227)">
<path d="M774.439 1489.2L744.423 1207.94C1356.6 1142.61 1824.05 803.659 1786.56 452.297L2276.6 400C2330.64 906.418 1656.76 1395.04 774.439 1489.2Z" fill="url(#paint3_linear_4126_227)"/>
</g>
<g filter="url(#filter4_f_4126_227)">
<path d="M758.794 1342.58L733.565 1106.18C1247.98 1051.28 1640.89 766.385 1609.38 471.131L2021.27 427.175C2066.69 852.819 1500.26 1263.45 758.794 1342.58Z" fill="url(#paint4_linear_4126_227)"/>
</g>
<g filter="url(#filter5_f_4126_227)">
<path d="M1068.76 1457.72L1038.74 1176.45C426.566 1241.79 -101.892 1009.12 -139.389 657.758L-629.43 710.055C-575.385 1216.47 186.431 1551.88 1068.76 1457.72Z" fill="url(#paint5_linear_4126_227)"/>
</g>
<defs>
<filter id="filter0_f_4126_227" x="344.423" y="0" width="2335.21" height="1889.2" filterUnits="userSpaceOnUse" color-interpolation-filters="sRGB">
<feFlood flood-opacity="0" result="BackgroundImageFix"/>
<feBlend mode="normal" in="SourceGraphic" in2="BackgroundImageFix" result="shape"/>
<feGaussianBlur stdDeviation="200" result="effect1_foregroundBlur_4126_227"/>
</filter>
<filter id="filter1_f_4126_227" x="333.565" y="27.1748" width="2090.25" height="1715.41" filterUnits="userSpaceOnUse" color-interpolation-filters="sRGB">
<feFlood flood-opacity="0" result="BackgroundImageFix"/>
<feBlend mode="normal" in="SourceGraphic" in2="BackgroundImageFix" result="shape"/>
<feGaussianBlur stdDeviation="200" result="effect1_foregroundBlur_4126_227"/>
</filter>
<filter id="filter2_f_4126_227" x="-1029.43" y="257.758" width="2498.19" height="1615.8" filterUnits="userSpaceOnUse" color-interpolation-filters="sRGB">
<feFlood flood-opacity="0" result="BackgroundImageFix"/>
<feBlend mode="normal" in="SourceGraphic" in2="BackgroundImageFix" result="shape"/>
<feGaussianBlur stdDeviation="200" result="effect1_foregroundBlur_4126_227"/>
</filter>
<filter id="filter3_f_4126_227" x="344.423" y="0" width="2335.21" height="1889.2" filterUnits="userSpaceOnUse" color-interpolation-filters="sRGB">
<feFlood flood-opacity="0" result="BackgroundImageFix"/>
<feBlend mode="normal" in="SourceGraphic" in2="BackgroundImageFix" result="shape"/>
<feGaussianBlur stdDeviation="200" result="effect1_foregroundBlur_4126_227"/>
</filter>
<filter id="filter4_f_4126_227" x="333.565" y="27.1748" width="2090.25" height="1715.41" filterUnits="userSpaceOnUse" color-interpolation-filters="sRGB">
<feFlood flood-opacity="0" result="BackgroundImageFix"/>
<feBlend mode="normal" in="SourceGraphic" in2="BackgroundImageFix" result="shape"/>
<feGaussianBlur stdDeviation="200" result="effect1_foregroundBlur_4126_227"/>
</filter>
<filter id="filter5_f_4126_227" x="-1029.43" y="257.758" width="2498.19" height="1615.8" filterUnits="userSpaceOnUse" color-interpolation-filters="sRGB">
<feFlood flood-opacity="0" result="BackgroundImageFix"/>
<feBlend mode="normal" in="SourceGraphic" in2="BackgroundImageFix" result="shape"/>
<feGaussianBlur stdDeviation="200" result="effect1_foregroundBlur_4126_227"/>
</filter>
<linearGradient id="paint0_linear_4126_227" x1="725.411" y1="1029.96" x2="2325.62" y2="859.185" gradientUnits="userSpaceOnUse">
<stop stop-color="#CC071E"/>
<stop offset="1" stop-color="white"/>
</linearGradient>
<linearGradient id="paint1_linear_4126_227" x1="717.591" y1="956.664" x2="2062.4" y2="813.146" gradientUnits="userSpaceOnUse">
<stop stop-color="#CC071E"/>
<stop offset="1" stop-color="white"/>
</linearGradient>
<linearGradient id="paint2_linear_4126_227" x1="1019.77" y1="998.463" x2="-580.443" y2="1169.24" gradientUnits="userSpaceOnUse">
<stop stop-color="#CC071E"/>
<stop offset="1" stop-color="#FF6E6E"/>
</linearGradient>
<linearGradient id="paint3_linear_4126_227" x1="725.411" y1="1029.96" x2="2325.62" y2="859.185" gradientUnits="userSpaceOnUse">
<stop stop-color="#CC071E"/>
<stop offset="1" stop-color="white"/>
</linearGradient>
<linearGradient id="paint4_linear_4126_227" x1="717.591" y1="956.664" x2="2062.4" y2="813.146" gradientUnits="userSpaceOnUse">
<stop stop-color="#CC071E"/>
<stop offset="1" stop-color="white"/>
</linearGradient>
<linearGradient id="paint5_linear_4126_227" x1="1019.77" y1="998.463" x2="-580.443" y2="1169.24" gradientUnits="userSpaceOnUse">
<stop stop-color="#CC071E"/>
<stop offset="1" stop-color="#FF6E6E"/>
</linearGradient>
</defs>
</svg>
