<svg width="172" height="38" viewBox="0 0 172 38" fill="none" xmlns="http://www.w3.org/2000/svg">
<path d="M35.374 25.652L27.7097 12.6816L22.4994 21.069C21.2579 23.0674 22.6951 25.652 25.0477 25.652L35.374 25.652Z" fill="#CC071E"/>
<path d="M0 37.1484L5.80152 26.8311L5.79026 27.0449C5.56098 31.4013 8.07742 35.4371 12.0902 37.1484H0Z" fill="#333333"/>
<path fill-rule="evenodd" clip-rule="evenodd" d="M20.6992 0.5L10.1301 19.0243C5.49567 27.147 11.3612 37.2467 20.713 37.2467H41.9149L36.9226 28.5997H20.713C17.998 28.5997 16.2951 25.6676 17.6406 23.3094L25.7063 9.17263L20.6992 0.5Z" fill="#CC071E"/>
<path d="M164.725 27.3003C165.642 27.3003 166.494 27.1412 167.281 26.8228C168.086 26.5045 168.873 26.055 169.64 25.4745L170.764 27.1599C170.408 27.4782 169.987 27.7685 169.5 28.0306C169.032 28.2928 168.517 28.5175 167.955 28.7048C167.412 28.8733 166.841 29.0044 166.242 29.098C165.642 29.2104 165.043 29.2666 164.444 29.2666C163.114 29.2666 161.897 29.0887 160.792 28.7329C159.706 28.3958 158.779 27.8996 158.011 27.2442C157.244 26.57 156.644 25.7461 156.214 24.7723C155.802 23.7985 155.596 22.675 155.596 21.4016C155.596 20.1469 155.792 19.0327 156.186 18.059C156.598 17.0665 157.159 16.2425 157.871 15.5871C158.601 14.913 159.463 14.4074 160.455 14.0703C161.448 13.7145 162.543 13.5366 163.742 13.5366C164.865 13.5366 165.923 13.7052 166.916 14.0422C167.908 14.3793 168.77 14.8755 169.5 15.531C170.23 16.1676 170.811 16.9448 171.241 17.8624C171.672 18.7799 171.887 19.8192 171.887 20.9803V22.9465H159.893C160.118 24.5008 160.652 25.615 161.494 26.2891C162.356 26.9633 163.433 27.3003 164.725 27.3003ZM163.742 15.3624C163.199 15.3624 162.693 15.4654 162.225 15.6714C161.757 15.8774 161.345 16.2051 160.989 16.6545C160.652 17.1039 160.371 17.6845 160.146 18.3961C159.94 19.1076 159.828 19.969 159.809 20.9803H167.674C167.674 20.0065 167.562 19.1638 167.337 18.4522C167.112 17.7406 166.813 17.1601 166.438 16.7107C166.082 16.2425 165.661 15.9055 165.174 15.6995C164.706 15.4748 164.228 15.3624 163.742 15.3624Z" fill="#333333"/>
<path d="M147.732 13.5366C148.331 13.5366 148.931 13.5928 149.53 13.7052C150.129 13.7988 150.7 13.9392 151.243 14.1265C151.805 14.295 152.32 14.5104 152.788 14.7725C153.275 15.0347 153.697 15.325 154.052 15.6433L152.929 17.3287C152.161 16.7482 151.374 16.2987 150.569 15.9804C149.783 15.662 148.931 15.5029 148.013 15.5029C147.339 15.5029 146.721 15.6152 146.159 15.8399C145.597 16.0459 145.111 16.3924 144.699 16.8792C144.287 17.3474 143.959 17.956 143.715 18.705C143.491 19.4541 143.378 20.3529 143.378 21.4016C143.378 22.4503 143.491 23.3491 143.715 24.0982C143.959 24.8472 144.296 25.4652 144.727 25.952C145.157 26.4202 145.672 26.7666 146.272 26.9913C146.89 27.1973 147.564 27.3003 148.294 27.3003C149.212 27.3003 150.064 27.1412 150.85 26.8228C151.655 26.5045 152.442 26.055 153.21 25.4745L154.333 27.1599C153.977 27.4782 153.556 27.7685 153.069 28.0306C152.601 28.2928 152.086 28.5175 151.524 28.7048C150.981 28.8733 150.41 29.0044 149.811 29.098C149.212 29.2104 148.612 29.2666 148.013 29.2666C146.684 29.2666 145.466 29.0887 144.362 28.7329C143.275 28.3958 142.348 27.8996 141.581 27.2442C140.813 26.57 140.214 25.7461 139.783 24.7723C139.371 23.7985 139.165 22.675 139.165 21.4016C139.165 20.1469 139.371 19.0327 139.783 18.059C140.214 17.0665 140.804 16.2425 141.553 15.5871C142.302 14.913 143.201 14.4074 144.249 14.0703C145.298 13.7145 146.459 13.5366 147.732 13.5366Z" fill="#333333"/>
<path d="M136.087 28.7045H132.154V19.8564C132.154 18.5081 131.817 17.5438 131.143 16.9632C130.469 16.364 129.495 16.0644 128.222 16.0644H124.57V28.7045H120.638V14.0981H128.222C130.9 14.0981 132.875 14.585 134.149 15.5588C135.441 16.5138 136.087 17.9464 136.087 19.8564V28.7045Z" fill="#333333"/>
<path d="M105.764 24.0701C105.764 25.8491 106.841 26.7385 108.994 26.7385H112.927V21.4016H108.994C106.841 21.4016 105.764 22.2911 105.764 24.0701ZM112.927 19.4354C112.927 18.0871 112.571 17.0946 111.86 16.4579C111.167 15.8212 110.258 15.5029 109.135 15.5029C108.292 15.5029 107.468 15.6339 106.663 15.8961C105.858 16.1396 105.137 16.4766 104.5 16.9073L103.517 15.222C103.929 14.9411 104.378 14.6976 104.865 14.4917C105.371 14.2857 105.886 14.1171 106.41 13.986C106.935 13.8362 107.45 13.7239 107.955 13.649C108.479 13.5741 108.966 13.5366 109.416 13.5366C110.614 13.5366 111.672 13.6771 112.59 13.958C113.507 14.2389 114.285 14.6415 114.921 15.1658C115.558 15.6901 116.035 16.3175 116.354 17.0478C116.691 17.7594 116.859 18.5552 116.859 19.4354V28.7048H108.994C106.448 28.7048 104.566 28.3209 103.348 27.5531C102.15 26.7854 101.551 25.6243 101.551 24.0701C101.551 22.5158 102.15 21.3548 103.348 20.587C104.566 19.8192 106.448 19.4354 108.994 19.4354H112.927Z" fill="#333333"/>
<path d="M98.4597 28.7047H94.5272V14.3792H98.4597V28.7047ZM98.6001 10.5872C98.6001 11.1489 98.4035 11.6452 98.0102 12.0759C97.6357 12.4879 97.1301 12.6938 96.4934 12.6938C95.8567 12.6938 95.3418 12.4879 94.9485 12.0759C94.574 11.6452 94.3867 11.1489 94.3867 10.5872C94.3867 10.0254 94.574 9.5385 94.9485 9.12652C95.3418 8.69582 95.8567 8.48047 96.4934 8.48047C97.1114 8.48047 97.617 8.69582 98.0102 9.12652C98.4035 9.5385 98.6001 10.0254 98.6001 10.5872Z" fill="#333333"/>
<path d="M90.4462 28.7049H86.5137V9.04248H90.4462V28.7049Z" fill="#333333"/>
<path d="M82.5741 28.7049H78.6416V9.04248H82.5741V28.7049Z" fill="#333333"/>
<path d="M60.7959 21.8231H69.5036L65.2902 11.4301H65.0093L60.7959 21.8231ZM68.38 9.04248L76.3854 28.7049H72.3406L70.4867 23.9298H59.8128L57.9589 28.7049H53.9141L61.9195 9.04248H68.38Z" fill="#333333"/>
</svg>
