<svg width="288" height="706" viewBox="0 0 288 706" fill="none" xmlns="http://www.w3.org/2000/svg">
<path d="M0 24.8042C0 11.5493 10.7452 0.804199 24 0.804199H264C277.255 0.804199 288 11.5494 288 24.8042V60.4727V650.007V681.247C288 694.501 277.255 705.247 264 705.247H24C10.7452 705.247 0 694.501 0 681.247L0 399.973C0 386.718 10.7452 375.973 24 375.973H124.5C132.508 375.973 139 369.481 139 361.473C139 353.465 145.492 346.973 153.5 346.973H245C258.255 346.973 269 336.227 269 322.973V107.304C269 94.0493 258.255 83.3041 245 83.3041H24C10.7452 83.3041 0 72.559 0 59.3041V24.8042Z" fill="white"/>
</svg>
