<svg width="704" height="201" viewBox="0 0 704 201" fill="none" xmlns="http://www.w3.org/2000/svg">
<path d="M704 72.4932C704 59.2383 693.255 48.4932 680 48.4932H266.147C251.154 48.4932 239 36.3391 239 21.3464C239 10.1018 229.884 0.986328 218.64 0.986328H24C10.7452 0.986328 0 11.7315 0 24.9863V48.4932V118.986C0 132.241 10.7452 142.986 24 142.986H30.5C43.7548 142.986 54.5 153.731 54.5 166.986V176.993C54.5 190.248 65.2452 200.993 78.5 200.993H680C693.255 200.993 704 190.248 704 176.993V72.4932Z" fill="#909090"/>
</svg>
