<svg width="720" height="960" viewBox="0 0 720 960" fill="none" xmlns="http://www.w3.org/2000/svg">
<path d="M0 32.0713C0 14.3982 14.3269 0.0712891 32 0.0712891H286C303.673 0.0712891 318 14.3982 318 32.0713V97.7329C318 115.406 332.327 129.733 350 129.733H688C705.673 129.733 720 144.06 720 161.733V627.479V927.247C720 944.92 705.673 959.247 688 959.247H32C14.3269 959.247 0 944.92 0 927.247L0 600.986C0 583.313 14.3269 568.986 32 568.986H461C476.464 568.986 489 556.45 489 540.986C489 525.522 501.536 512.986 517 512.986H616.5C634.173 512.986 648.5 498.659 648.5 480.986V184.564C648.5 166.891 634.173 152.564 616.5 152.564H32C14.3269 152.564 0 138.238 0 120.564V32.0713Z" fill="white"/>
</svg>
