<svg width="275" height="234" viewBox="0 0 275 234" fill="none" xmlns="http://www.w3.org/2000/svg" xmlns:xlink="http://www.w3.org/1999/xlink">
    <path d="M19.9105 28C27.6425 28 33.9105 21.732 33.9105 14V14C33.9105 6.26801 40.1785 0 47.9105 0H255C266.046 0 275 8.95431 275 20V181.5C275 192.546 266.046 201.5 255 201.5H206.242C197.267 201.5 189.992 208.775 189.992 217.75V217.75C189.992 226.725 182.716 234 173.742 234H20C8.95429 234 0 225.046 0 214V44.9552C0 35.5911 7.59112 28 16.9552 28H19.9105Z" fill="#D9D9D9"/>
</svg>