<svg width="720" height="820" viewBox="0 0 720 820" fill="none" xmlns="http://www.w3.org/2000/svg">
<path d="M0 32.8315C0 15.1584 14.3269 0.831543 32 0.831543H286C303.673 0.831543 318 15.1584 318 32.8315V98.4932C318 116.166 332.327 130.493 350 130.493H688C705.673 130.493 720 144.82 720 162.493V628.24V787.747C720 805.42 705.673 819.747 688 819.747H32C14.3269 819.747 0 805.42 0 787.747V601.747C0 584.073 14.3269 569.747 32 569.747H461C476.464 569.747 489 557.211 489 541.747C489 526.283 501.536 513.747 517 513.747H616.5C634.173 513.747 648.5 499.42 648.5 481.747V185.325C648.5 167.652 634.173 153.325 616.5 153.325H32C14.3269 153.325 0 138.998 0 121.325V32.8315Z" fill="white"/>
</svg>
