<svg width="289" height="640" viewBox="0 0 289 640" fill="none" xmlns="http://www.w3.org/2000/svg">
<path d="M0.5 24.8315C0.5 11.5767 11.2452 0.831543 24.5 0.831543H264.5C277.755 0.831543 288.5 11.5767 288.5 24.8315V60.5V628.24C288.5 634.735 283.235 640 276.74 640H24.5C11.2452 640 0.5 629.255 0.5 616L0.5 400C0.5 386.745 11.2452 376 24.5 376H125C133.008 376 139.5 369.508 139.5 361.5C139.5 353.492 145.992 347 154 347H245.5C258.755 347 269.5 336.255 269.5 323V107.331C269.5 94.0766 258.755 83.3315 245.5 83.3315H24.5C11.2452 83.3315 0.5 72.5863 0.5 59.3315V24.8315Z" fill="white"/>
</svg>
