<svg width="553" height="576" viewBox="0 0 553 576" fill="none" xmlns="http://www.w3.org/2000/svg" xmlns:xlink="http://www.w3.org/1999/xlink">
    <path d="M0 104.3C0 82.2088 17.9086 64.3002 40 64.3002H50.4537C68.2097 64.3002 82.6038 49.9061 82.6038 32.1501C82.6038 14.3941 96.9978 0 114.754 0H513C535.091 0 553 17.9086 553 40V219.377V420.908C553 442.999 535.091 460.908 513 460.908H452.524C430.433 460.908 412.524 478.817 412.524 500.908V536C412.524 558.091 394.616 576 372.524 576H40C17.9086 576 0 558.091 0 536V104.3Z" fill="white"/>
</svg>