<svg width="272" height="163" viewBox="0 0 272 163" fill="none" xmlns="http://www.w3.org/2000/svg">
<path d="M272 45.4727C272 36.6361 264.837 29.4727 256 29.4727H161C152.992 29.4727 146.5 22.9808 146.5 14.9727C146.5 6.96453 140.008 0.472656 132 0.472656H16C7.16345 0.472656 0 7.6361 0 16.4727V61.9727V123.486C0 132.323 7.16345 139.486 16 139.486H44.25C50.7393 139.486 56 144.747 56 151.236C56 157.726 61.2607 162.986 67.75 162.986H256C264.837 162.986 272 155.823 272 146.986L272 45.4727Z" fill="#909090"/>
</svg>
