<svg width="720" height="382" viewBox="0 0 720 382" fill="none" xmlns="http://www.w3.org/2000/svg" xmlns:xlink="http://www.w3.org/1999/xlink">
    <path d="M0 32.4931C0 14.82 14.3269 0.493164 32 0.493164L646.75 0.493164C664.009 0.493164 678 14.4843 678 31.7432V41.9932C678 53.5911 687.402 62.9932 699 62.9932C710.598 62.9932 720 72.3952 720 83.9932L720 313.247C720 330.92 705.673 345.247 688 345.247H230.107C220.028 345.247 211.857 353.417 211.857 363.497C211.857 373.576 203.686 381.747 193.607 381.747H32C14.3269 381.747 0 367.42 0 349.747V32.4931Z" fill="#D6D6D6"/>
</svg>
