<svg width="386" height="452" viewBox="0 0 386 452" fill="none" xmlns="http://www.w3.org/2000/svg" xmlns:xlink="http://www.w3.org/1999/xlink">
<path d="M5.6703e-05 74.6572C5.90956e-05 58.7353 12.9073 45.828 28.8292 45.828H35.2173C47.6112 45.828 57.6584 35.7808 57.6584 23.3869C57.6584 10.993 67.7056 0.945801 80.0995 0.945801H346C368.091 0.945801 386 18.8544 386 40.9458V154.073L386 331.665C386 353.756 368.091 371.665 346 371.665H327.946C305.855 371.665 287.946 389.741 287.946 411.832C287.946 433.924 270.038 452 247.946 452H40C17.9086 452 2.69111e-06 434.092 6.01077e-06 412L5.6703e-05 74.6572Z" fill="white"/>
</svg>
