<svg width="24" height="25" viewBox="0 0 24 25" fill="none" xmlns="http://www.w3.org/2000/svg">
<path d="M15.5569 14.6526L15.1019 15.1056C15.1019 15.1056 14.0189 16.1816 11.0639 13.2436C8.10886 10.3056 9.19186 9.22956 9.19186 9.22956L9.47786 8.94356C10.1849 8.24156 10.2519 7.11356 9.63486 6.28956L8.37486 4.60656C7.61086 3.58656 6.13586 3.45156 5.26086 4.32156L3.69086 5.88156C3.25786 6.31356 2.96786 6.87156 3.00286 7.49156C3.09286 9.07856 3.81086 12.4916 7.81486 16.4736C12.0619 20.6956 16.0469 20.8636 17.6759 20.7116C18.1919 20.6636 18.6399 20.4016 19.0009 20.0416L20.4209 18.6296C21.3809 17.6766 21.1109 16.0416 19.8829 15.3746L17.9729 14.3356C17.1669 13.8986 16.1869 14.0266 15.5569 14.6526Z" fill="#CC071E"/>
</svg>
